<svg width="606" height="535" viewBox="0 0 606 535" fill="none" xmlns="http://www.w3.org/2000/svg">
<g clip-path="url(#clip0)">
<path opacity="0.18" d="M354.315 0.126558C352.633 0.126558 350.783 0.294649 349 0.429122C313.474 2.8964 279.12 14.1484 249.026 33.1732C243.052 36.9812 237.291 41.1112 231.766 45.5447C215.583 58.5214 201.066 74.3723 193.378 93.6188C189.375 103.704 187.322 114.311 184.967 124.833C178.507 152.703 168.145 181.48 145.755 199.298C117.847 221.519 83.9167 229.15 59.6592 257.07C35.6708 284.688 18.9496 316.575 19.0001 353.891C19.0001 446.795 99.2921 479.068 174.453 502.366C263.341 530.033 357.899 542.707 450.605 530.117C489.885 524.772 529.669 514.468 561.631 491.188C609.608 456.359 632.671 392.451 622.712 334.644C617.666 305.313 608.784 278.805 606.378 248.666C603.249 209.366 609.86 169.075 598.337 130.683C579.16 66.9931 512.544 25.357 449.949 13.5402C417.987 7.52256 387.253 -1.15093 354.315 0.126558Z" fill="#68E1FD"/>
<path d="M543.321 85.2558V138.826C543.361 141.281 542.917 143.72 542.013 146.003C541.11 148.286 539.766 150.369 538.057 152.133C536.348 153.897 534.308 155.307 532.053 156.283C529.799 157.259 527.374 157.781 524.917 157.821H483.972L465.468 184.598V157.821H430.646C425.685 157.737 420.959 155.69 417.506 152.129C414.053 148.568 412.154 143.784 412.226 138.826V85.2558C412.154 80.2979 414.053 75.514 417.506 71.9532C420.959 68.3924 425.685 66.3455 430.646 66.2615H524.85C527.31 66.2878 529.74 66.7985 532.001 67.7644C534.263 68.7303 536.312 70.1323 538.031 71.8903C539.749 73.6484 541.104 75.7278 542.018 78.0097C542.931 80.2916 543.386 82.731 543.354 85.1885L543.321 85.2558Z" fill="url(#paint0_linear)"/>
<path d="M533.026 476.269C533.761 476.618 534.428 477.097 534.994 477.681C535.667 478.336 536.099 479.199 536.218 480.13C536.337 481.061 536.137 482.005 535.65 482.808C534.603 483.853 533.193 484.455 531.714 484.489L479.565 492.591C470.447 494.003 461.263 495.415 452.061 494.961C447.709 494.742 443.388 494.106 439.158 493.061C431.302 491.128 423.816 487.8 415.876 486.338C407.936 484.875 400.03 485.833 392.09 485.329C382.602 484.741 373.586 480.858 364.35 478.606C351.481 475.58 337.973 477.916 325.542 474.487C312.527 470.986 299.159 468.962 285.69 468.453C272.03 467.831 258.354 468.234 244.695 468.251C237.848 468.251 231.001 468.251 224.155 467.864C219.243 467.629 209.755 464.704 205.264 466.184C225.181 459.594 246.427 459.023 267.32 458.603C285.724 458.255 304.121 457.986 322.514 457.796C345.308 457.577 368.303 457.51 390.593 462.402L359.691 469.545C375.626 473.215 391.937 475.003 408.29 474.874L428.998 474.521C436.685 474.403 444.373 474.521 452.061 474.521C455.308 474.521 458.891 473.966 462.154 474.202C465.418 474.437 468.967 476.168 472.247 477.362C474.081 478.229 476.113 478.595 478.135 478.421C479.95 477.869 481.657 477.011 483.182 475.882C489.641 472.033 497.497 471.882 504.95 472.084C513.456 472.083 521.931 473.127 530.183 475.193C531.163 475.459 532.115 475.819 533.026 476.269Z" fill="url(#paint1_linear)"/>
<path d="M353.618 103.83H235.409C221.937 103.83 211.017 114.742 211.017 128.203V412.512C211.017 425.973 221.937 436.885 235.409 436.885H353.618C367.089 436.885 378.01 425.973 378.01 412.512V128.203C378.01 114.742 367.089 103.83 353.618 103.83Z" fill="#68E1FD"/>
<path d="M351.128 108.015H237.898C224.873 108.015 214.314 118.566 214.314 131.582V408.562C214.314 421.577 224.873 432.128 237.898 432.128H351.128C364.154 432.128 374.713 421.577 374.713 408.562V131.582C374.713 118.566 364.154 108.015 351.128 108.015Z" fill="#473F47"/>
<path d="M370.356 134.675V402.158C370.374 405.113 369.808 408.044 368.693 410.781C367.577 413.519 365.933 416.01 363.854 418.112C361.775 420.215 359.301 421.888 356.575 423.035C353.849 424.182 350.924 424.782 347.966 424.8H241.246C237.334 424.804 233.492 423.772 230.11 421.808C226.67 419.808 223.817 416.94 221.836 413.491C219.855 410.042 218.816 406.134 218.822 402.158V134.675C218.795 128.702 221.142 122.963 225.346 118.718C229.55 114.473 235.269 112.068 241.246 112.033H259.296V115.394C259.319 117.531 259.969 119.615 261.165 121.386C262.361 123.158 264.051 124.54 266.025 125.362C267.336 125.884 268.735 126.152 270.146 126.152H319.738C322.625 126.135 325.387 124.975 327.42 122.927C329.454 120.88 330.593 118.111 330.588 115.226V112.033H348.05C353.83 112.037 359.382 114.292 363.526 118.319C365.705 120.448 367.433 122.993 368.606 125.803C369.78 128.613 370.375 131.63 370.356 134.675V134.675Z" fill="white"/>
<path d="M370.356 134.675V214.249H218.755V134.675C218.742 131.712 219.313 128.775 220.437 126.033C221.56 123.291 223.214 120.797 225.303 118.694C227.391 116.591 229.875 114.92 232.611 113.777C235.346 112.634 238.281 112.041 241.246 112.033H259.33V115.394C259.353 117.531 260.003 119.615 261.199 121.386C262.395 123.158 264.084 124.54 266.059 125.362C267.37 125.884 268.769 126.152 270.18 126.152H319.772C322.658 126.135 325.421 124.975 327.454 122.927C329.487 120.88 330.626 118.111 330.622 115.226V112.033H348.083C353.864 112.037 359.416 114.292 363.56 118.319C365.733 120.45 367.454 122.997 368.622 125.807C369.789 128.616 370.379 131.632 370.356 134.675V134.675Z" fill="#68E1FD"/>
<path d="M210.966 323.726H265.739C269.421 323.665 272.929 322.144 275.49 319.5C278.051 316.856 279.457 313.303 279.399 309.624V189.691C279.428 187.87 279.097 186.06 278.426 184.367C277.755 182.673 276.757 181.128 275.489 179.82C274.22 178.512 272.707 177.467 271.034 176.743C269.361 176.02 267.562 175.633 265.739 175.605H210.966V323.726Z" fill="url(#paint2_linear)"/>
<path d="M257.463 175.605H141.104C134.238 175.605 128.672 181.166 128.672 188.027V302.06C128.672 308.92 134.238 314.481 141.104 314.481H257.463C264.328 314.481 269.894 308.92 269.894 302.06V188.027C269.894 181.166 264.328 175.605 257.463 175.605Z" fill="white"/>
<path d="M183.008 277.081H167.868C167.583 277.086 167.3 277.034 167.035 276.929C166.77 276.824 166.528 276.668 166.324 276.47C166.119 276.272 165.955 276.035 165.842 275.774C165.729 275.512 165.669 275.231 165.664 274.946C165.648 274.773 165.648 274.599 165.664 274.425L168.692 254.624C169.645 248.382 170.599 242.152 171.552 235.933C172.292 231.024 173.038 226.116 173.789 221.208C174.479 216.72 175.152 212.232 175.842 207.76C175.898 207.014 176.183 206.304 176.659 205.726C177.135 205.149 177.778 204.732 178.5 204.533C178.815 204.466 179.136 204.433 179.458 204.432H204.961C208.376 204.405 211.777 204.881 215.054 205.844C216.346 206.228 217.593 206.753 218.772 207.407C220.756 208.493 222.46 210.026 223.748 211.885C225.036 213.744 225.872 215.877 226.19 218.115C226.493 220.115 226.493 222.149 226.19 224.149C226.112 224.514 226.084 224.887 226.106 225.259C226.033 225.35 225.992 225.462 225.988 225.578C225.67 227.586 225.209 229.569 224.609 231.512C223.28 236.007 220.778 240.069 217.359 243.278C215.524 244.914 213.44 246.248 211.185 247.228C209.101 248.141 206.916 248.801 204.675 249.195C202.933 249.53 201.166 249.716 199.393 249.75H190.191C189.317 249.725 188.464 250.023 187.797 250.588C187.129 251.152 186.694 251.943 186.574 252.809C186.305 254.322 186.086 255.851 185.868 257.381C185.565 259.331 185.296 261.297 184.993 263.264C184.69 265.231 184.303 267.685 183.95 269.988L183.008 277.081Z" fill="#68E1FD"/>
<path d="M183.008 277.081H167.868C167.583 277.086 167.3 277.034 167.035 276.929C166.77 276.824 166.528 276.668 166.324 276.47C166.119 276.272 165.955 276.035 165.842 275.774C165.729 275.512 165.669 275.231 165.664 274.946C165.648 274.773 165.648 274.599 165.664 274.425L168.692 254.624C169.645 248.382 170.599 242.152 171.552 235.933C172.292 231.024 173.038 226.116 173.789 221.208C174.479 216.72 175.152 212.232 175.842 207.76C175.898 207.014 176.183 206.304 176.659 205.726C177.135 205.149 177.778 204.732 178.5 204.533C178.815 204.466 179.136 204.433 179.458 204.432H204.961C208.376 204.405 211.777 204.881 215.054 205.844C216.346 206.228 217.593 206.753 218.772 207.407C220.756 208.493 222.46 210.026 223.748 211.885C225.036 213.744 225.872 215.877 226.19 218.115C226.493 220.115 226.493 222.149 226.19 224.149C226.112 224.514 226.084 224.887 226.106 225.259C226.033 225.35 225.992 225.462 225.988 225.578C225.67 227.586 225.209 229.569 224.609 231.512C223.28 236.007 220.778 240.069 217.359 243.278C215.524 244.914 213.44 246.248 211.185 247.228C209.101 248.141 206.916 248.801 204.675 249.195C202.933 249.53 201.166 249.716 199.393 249.75H190.191C189.317 249.725 188.464 250.023 187.797 250.588C187.129 251.152 186.694 251.943 186.574 252.809C186.305 254.322 186.086 255.851 185.868 257.381C185.565 259.331 185.296 261.297 184.993 263.264C184.69 265.231 184.303 267.685 183.95 269.988L183.008 277.081Z" fill="url(#paint3_linear)"/>
<path d="M183.008 277.081L184.118 269.954C184.471 267.735 184.825 265.533 185.161 263.23C185.464 261.264 185.733 259.297 186.036 257.347C186.255 255.818 186.473 254.288 186.742 252.775C186.862 251.91 187.298 251.119 187.965 250.554C188.632 249.99 189.485 249.691 190.359 249.716H199.561C201.334 249.682 203.101 249.496 204.843 249.161C207.084 248.768 209.269 248.107 211.353 247.195C213.608 246.214 215.692 244.881 217.527 243.244C220.946 240.035 223.448 235.974 224.777 231.478C225.378 229.536 225.839 227.553 226.157 225.544C226.16 225.428 226.202 225.316 226.274 225.225C227.918 226.03 229.326 227.246 230.362 228.755C231.69 230.636 232.496 232.833 232.7 235.126C233.122 239.572 232.548 244.057 231.018 248.254C229.958 251.497 228.175 254.457 225.803 256.91C223.082 259.629 219.657 261.538 215.912 262.424C213.077 263.113 210.166 263.447 207.249 263.415H205.566C204.842 263.408 204.14 263.662 203.59 264.132C203.039 264.602 202.678 265.255 202.572 265.97C202.219 267.92 201.916 269.904 201.613 271.87C201.125 275.014 200.654 278.174 200.183 281.317L199.83 283.385C199.746 283.894 199.557 284.381 199.275 284.813C199.107 285.084 198.871 285.305 198.591 285.456C198.31 285.606 197.995 285.68 197.677 285.671H183.546C183.193 285.671 182.806 285.805 182.537 285.418C182.22 285.007 182.075 284.489 182.133 283.973C182.318 282.746 182.52 281.519 182.705 280.292C182.89 279.065 182.84 278.14 183.008 277.081Z" fill="#68E1FD"/>
<path d="M470.599 454.384C470.599 454.384 475.746 459.225 474.737 462.67C473.728 466.116 469.102 468.402 468.462 472.605C467.823 476.807 465.333 479.093 463.079 479.093H452.313C452.313 479.093 450.631 476.135 454.668 475.244C458.706 474.353 460.186 469.411 459.934 464.822C459.835 461.254 459.964 457.683 460.321 454.131L468.849 452.081L470.599 454.384Z" fill="#FCBDBA"/>
<path d="M427.063 456.434C427.063 456.434 428.914 476.941 426.659 478.101H397.692C397.692 478.101 397.692 474.655 402.335 473.899C406.978 473.143 415.136 470.335 416.516 464.082C417.895 457.829 427.063 456.434 427.063 456.434Z" fill="#FCBDBA"/>
<path d="M447.653 309.304C441.715 295.538 438.082 291.604 438.771 287.318C439.293 284.141 437.19 228.083 437.19 228.083C436.484 227.847 435.07 227.646 434.297 227.478C433.084 227.195 431.962 226.611 431.035 225.78C430.109 224.948 429.408 223.896 428.998 222.721C427.713 218.627 427.105 214.352 427.198 210.063L426.441 210.215L413.639 212.837C413.639 212.837 413.925 216.989 413.925 220.905V221.006C413.957 222.641 413.456 224.242 412.497 225.568C411.538 226.893 410.173 227.87 408.609 228.352L405.581 229.242C402.643 238.36 400.763 247.784 399.979 257.331C399.088 271.551 408.542 277.737 399.979 306.178C391.114 335.19 450.951 316.885 447.653 309.304Z" fill="#FCBDBA"/>
<path d="M438.771 287.301C438.771 287.301 451.472 304.9 452.666 316.784C453.861 328.668 454.517 370.439 457.04 382.037C459.563 393.635 468.816 415.941 468.816 452.081C467.944 453.591 466.54 454.723 464.879 455.258C463.745 455.657 462.588 455.988 461.414 456.249C460.209 456.527 458.945 456.383 457.834 455.842C456.722 455.3 455.831 454.394 455.307 453.274C449.05 440.247 429.065 398.241 428.039 389.534C427.316 383.365 421.007 342.469 407.247 318.566C403.882 312.817 409.282 289.991 409.282 289.991L438.771 287.301Z" fill="#68E1FD"/>
<path d="M468.832 452.182C467.979 453.657 466.615 454.769 464.997 455.308H464.98C463.839 455.705 462.677 456.036 461.498 456.3C460.295 456.576 459.034 456.432 457.926 455.89C456.817 455.349 455.928 454.443 455.408 453.325C449.134 440.298 429.166 398.292 428.14 389.568C426.298 376.656 423.6 363.881 420.065 351.327C416.869 339.914 412.663 328.03 407.28 318.701C403.916 312.935 409.316 290.125 409.316 290.125L438.771 287.452C438.771 287.452 451.472 305.035 452.666 316.936C453.861 328.836 454.517 370.607 457.04 382.188C459.563 393.77 468.832 415.924 468.832 452.182Z" fill="url(#paint4_linear)"/>
<path d="M464.98 455.224C463.839 455.621 462.677 455.952 461.498 456.216C460.295 456.492 459.034 456.348 457.926 455.806C456.817 455.265 455.928 454.359 455.408 453.241C449.134 440.213 429.166 398.208 428.14 389.484C426.323 376.551 423.648 363.754 420.132 351.176C420.985 349.763 422.362 348.745 423.964 348.345C425.566 347.945 427.261 348.195 428.678 349.041H428.779C434.583 352.201 436.601 363.665 437.611 369.565C439.175 378.978 438.569 388.963 442.405 397.67C444.457 402.343 447.738 406.461 449.268 411.352C450.184 415.383 450.769 419.481 451.018 423.606C452.159 431.908 455.478 439.761 460.64 446.366C462.743 449.005 465.266 451.879 464.98 455.224Z" fill="url(#paint5_linear)"/>
<path d="M413.639 212.82C413.639 212.82 413.925 216.972 413.925 220.888C421.108 220.687 424.893 213.946 426.441 210.198L413.639 212.82Z" fill="#FCBDBA"/>
<path d="M411.368 216.384C411.47 216.497 411.589 216.593 411.721 216.669C412.081 216.867 412.489 216.96 412.899 216.938C414.523 216.905 416.129 216.586 417.643 215.997C419.973 215.341 422.183 214.313 424.187 212.954C426.205 211.437 427.604 209.239 428.123 206.769C428.403 204.539 428.482 202.289 428.358 200.045C428.358 196.935 428.779 193.069 426.979 190.346C425.297 187.875 422.286 187.27 419.594 187.119C415.826 186.884 411.082 186.934 408.121 189.758C407.268 190.601 406.623 191.631 406.237 192.767C405.697 194.965 405.549 197.241 405.8 199.49C405.792 201.321 405.691 203.15 405.497 204.97C405.446 205.304 405.446 205.644 405.497 205.979C405.689 206.478 406.008 206.918 406.422 207.256C408.643 209.677 409.03 213.358 410.998 215.997C411.104 216.142 411.228 216.272 411.368 216.384V216.384Z" fill="#FCBDBA"/>
<path d="M411.873 186.816C411.873 186.816 416.516 199.591 423.648 201.491C430.781 203.39 433.876 201.407 433.876 201.407C430.325 198.184 427.991 193.84 427.265 189.102C427.265 189.102 415.372 180.731 411.873 186.816Z" fill="#473F47"/>
<path d="M414.934 209.778C414.503 210.278 413.961 210.672 413.35 210.925C412.74 211.179 412.078 211.287 411.419 211.24C410.865 211.201 410.332 211.015 409.873 210.702C409.415 210.389 409.048 209.96 408.811 209.458C410.841 208.983 412.965 209.093 414.934 209.778V209.778Z" fill="#FCBDBA"/>
<path d="M406.103 285.872L402.452 284.746C402.452 284.746 402.351 284.477 402.183 283.973C403.376 284.818 404.7 285.46 406.103 285.872Z" fill="#FCBDBA"/>
<path d="M403.462 288.108C403.462 288.108 395.135 314.851 394.596 323.962C394.058 333.072 410.527 453.392 411.183 457.544C411.839 461.695 416.583 464.015 416.583 464.015C418.231 464.847 420.14 464.998 421.899 464.435C423.999 463.995 425.958 463.042 427.601 461.662C427.601 461.662 434.078 375.935 430.074 345.242C427.625 326.285 426.266 307.204 426.003 288.091L403.462 288.108Z" fill="#68E1FD"/>
<path d="M427.601 461.679C425.947 463.048 423.984 463.994 421.882 464.435C420.333 464.908 418.671 464.855 417.155 464.284C416.948 464.219 416.751 464.128 416.566 464.015C416.566 464.015 411.805 461.494 411.183 457.544C410.561 453.594 394.075 333.072 394.613 323.962C395.152 314.851 403.462 288.108 403.462 288.108H426.02C426.269 307.22 427.622 326.303 430.074 345.259C434.078 375.902 427.601 461.679 427.601 461.679Z" fill="url(#paint6_linear)"/>
<path d="M449.285 266.643C449.016 271.685 444.121 278.291 443.431 279.956C441.749 284.091 439.73 284.746 439.73 284.746C440.27 286.42 440.553 288.165 440.571 289.923C440.571 289.923 422.656 294.596 408.811 292.428C406.705 292.112 404.636 291.582 402.637 290.848C401.592 288.706 401.411 286.244 402.133 283.973C400.821 279.956 395.084 261.297 397.826 250.271C398.482 247.598 399.256 244.959 400.131 242.32C400.905 240.017 401.292 237.714 402.049 235.411C402.556 234.368 402.72 233.192 402.52 232.05C402.411 231.713 402.207 231.414 401.933 231.19C401.658 230.967 401.324 230.827 400.972 230.789C400.788 230.774 400.603 230.806 400.435 230.882C400.268 230.959 400.122 231.077 400.013 231.226C401.78 226.872 406.523 224.822 410.83 223.158C411.606 222.818 412.439 222.624 413.286 222.586C414.452 222.738 415.562 223.177 416.516 223.864C417.475 224.418 418.45 224.923 419.46 225.41C422.25 226.711 425.213 227.605 428.258 228.066C429.82 228.312 431.403 228.408 432.985 228.352C433.977 228.352 436.046 227.646 436.921 228.066C438.771 228.974 440.504 234.789 441.396 236.622C444.042 242.012 446.672 247.402 449.285 252.792C449.563 257.405 449.563 262.03 449.285 266.643V266.643Z" fill="white"/>
<path d="M412.966 240.874C412.745 243.891 411.958 246.839 410.645 249.565C410.262 250.25 409.823 250.902 409.333 251.515C408.273 252.893 407.011 254.137 406.052 255.599C403.243 259.902 403.563 265.55 403.983 270.727C404.437 276.476 404.976 282.342 407.213 287.536C408.017 289.042 408.558 290.673 408.811 292.361C406.705 292.045 404.636 291.515 402.637 290.781C401.592 288.639 401.411 286.177 402.133 283.906C400.821 279.888 395.084 261.23 397.826 250.203C398.482 247.531 399.256 244.892 400.131 242.253C400.905 239.95 401.292 237.647 402.049 235.344C402.556 234.301 402.72 233.125 402.52 231.982C402.411 231.645 402.207 231.347 401.933 231.123C401.658 230.899 401.324 230.76 400.972 230.722C401.44 229.916 402.005 229.171 402.654 228.503C403.269 227.782 404.049 227.221 404.927 226.866C405.806 226.512 406.758 226.376 407.701 226.469C408.91 226.67 410.021 227.26 410.863 228.15C413.757 231.512 413.538 236.521 412.966 240.874Z" fill="url(#paint7_linear)"/>
<path d="M414.514 210.131C414.514 210.131 414.228 211.408 411.149 211.206C411.149 211.206 408.542 211.055 408.626 209.643C410.58 209.06 412.682 209.234 414.514 210.131V210.131Z" fill="#FCBDBA"/>
<path d="M374.141 236.319C367.766 235.817 361.466 234.622 355.35 232.756C352.474 231.932 349.597 230.856 346.704 230.335C345.414 230.169 344.175 229.729 343.07 229.045C341.964 228.36 341.018 227.448 340.295 226.368C338.949 224.317 338.192 221.51 335.921 220.687L336.106 223.813C336.172 224.171 336.106 224.542 335.921 224.855C335.467 225.444 334.558 225.091 333.953 224.687L325.996 219.443C325.948 220.145 326.077 220.849 326.371 221.489C326.664 222.129 327.114 222.685 327.678 223.107C328.842 223.909 329.757 225.022 330.319 226.318C328.093 224.99 325.737 223.891 323.288 223.04C323.252 223.682 323.39 224.321 323.686 224.891C323.982 225.462 324.425 225.943 324.97 226.284C326.069 226.922 327.048 227.747 327.863 228.721C325.82 228.114 323.725 227.697 321.605 227.478C321.117 228.553 322.463 229.478 323.557 229.848L328.233 231.428C326.358 231.391 324.482 231.464 322.615 231.646C323.641 233.025 325.71 232.604 327.358 232.991C329.036 233.647 330.589 234.585 331.951 235.764C334.053 236.905 336.325 237.7 338.68 238.118C340.283 238.803 341.77 239.733 343.087 240.874C347.564 243.498 352.251 245.747 357.1 247.598C359.472 248.59 361.861 249.581 364.317 250.355C372.021 252.775 380.23 252.91 388.288 252.473C394.459 252.332 400.5 250.681 405.884 247.665C410.611 245.009 412.411 237.782 411.62 232.537C411.517 231.366 411.085 230.248 410.376 229.31C409.648 228.545 408.692 228.038 407.65 227.864C403.815 227.074 400.114 229.394 396.649 231.226C389.782 235.025 381.975 236.791 374.141 236.319V236.319Z" fill="#FCBDBA"/>
<path d="M405.245 197.541L407.533 193.288C407.516 194.641 407.89 195.971 408.609 197.118C409.327 198.266 410.361 199.183 411.587 199.759C412.421 200.021 413.214 200.4 413.942 200.886C414.53 201.48 414.968 202.206 415.22 203.003C416.742 207.012 417.401 211.296 417.155 215.577C416.734 222.99 411.654 236.907 418.972 242.387C421.667 244.119 424.771 245.11 427.972 245.262C427.621 248.268 427.481 251.296 427.551 254.322C427.411 257.434 428.139 260.524 429.654 263.247C432.564 267.668 438.839 268.643 443.599 266.609C444.919 265.85 446.378 265.364 447.889 265.18C450.227 265.18 452.078 267.13 454.231 268.038C455.839 268.601 457.566 268.742 459.245 268.448C460.924 268.154 462.499 267.434 463.819 266.357C466.768 263.916 468.744 260.501 469.389 256.729C470.034 252.958 469.306 249.08 467.335 245.799C465.653 243.244 463.298 241.244 461.717 238.639C457.309 231.36 462.104 222.166 459.664 214.232C458.589 210.706 456.278 207.686 453.154 205.727C449.605 203.525 444.979 202.684 442.657 199.154C439.562 194.464 442.287 187.842 440.353 182.547C438.906 178.613 435.121 176.109 431.285 174.697C426.945 173.145 422.3 172.641 417.727 173.225C413.155 173.809 408.785 175.466 404.976 178.059C398.735 182.311 398.314 193.12 405.245 197.541Z" fill="#473F47"/>
<path d="M348.268 185.472H305.086C302.912 185.472 301.15 187.233 301.15 189.405V189.523C301.15 191.695 302.912 193.456 305.086 193.456H348.268C350.442 193.456 352.205 191.695 352.205 189.523V189.405C352.205 187.233 350.442 185.472 348.268 185.472Z" fill="white"/>
<path d="M419.325 458.72C419.174 460.75 418.418 462.688 417.155 464.284C416.948 464.219 416.751 464.128 416.566 464.015C416.566 464.015 411.805 461.494 411.183 457.544C410.561 453.594 394.075 333.072 394.613 323.962C395.152 314.851 403.462 288.108 403.462 288.108L402.637 290.848C403.31 291.117 406.002 291.873 407.465 292.193C414.346 293.672 404.875 298.227 402.923 303.438C400.99 309.571 400.114 315.989 400.333 322.415C400.115 327.922 400.516 333.437 401.527 338.855C402.705 344.368 404.892 349.612 406.103 355.126C408.492 366.522 406.103 378.524 408.172 390.005C408.71 393.03 409.534 395.972 410.073 398.998C410.919 405.038 411.229 411.141 410.998 417.235C410.998 425.825 411.267 434.616 414.362 442.584C416.381 447.895 419.678 453.022 419.325 458.72Z" fill="url(#paint8_linear)"/>
<path d="M419.762 475.126C418.178 475.071 416.605 474.845 415.069 474.454C414.449 474.326 413.845 474.129 413.269 473.865C411.906 473.143 410.897 471.63 409.366 471.428C408.711 471.377 408.052 471.463 407.432 471.68L404.236 472.521C402.701 472.872 401.211 473.396 399.794 474.084C398.319 474.784 397.131 475.972 396.43 477.446C396.178 478.017 395.774 480.707 396.195 481.144C396.521 481.424 396.942 481.568 397.372 481.547C406.815 482.046 416.282 481.872 425.701 481.026C426.223 481.032 426.738 480.904 427.198 480.656C427.921 480.202 428.443 477.294 428.577 476.504C428.93 474.336 428.459 472.134 426.054 473.462C424.137 474.553 421.969 475.127 419.762 475.126V475.126Z" fill="#68E1FD"/>
<path d="M470.027 462.57C469.174 465.476 467.336 467.995 464.829 469.697C464.274 470.159 463.615 470.48 462.908 470.629C462.202 470.778 461.469 470.753 460.775 470.554C460.388 470.34 459.989 470.149 459.58 469.982C459.096 469.907 458.6 469.956 458.141 470.127C457.681 470.298 457.273 470.584 456.956 470.957C456.266 471.663 455.745 472.521 455.005 473.159C453.62 474.072 452.114 474.785 450.53 475.277C449.033 475.983 447.569 477.446 447.855 479.11C448.209 481.261 450.917 481.833 453.036 481.833C457.548 481.814 462.05 481.415 466.494 480.639C467.203 480.574 467.877 480.299 468.429 479.849C468.934 479.162 469.237 478.347 469.304 477.496C469.671 475.269 470.584 473.167 471.961 471.378C474.148 468.621 477.748 466.469 477.832 462.973C477.832 460.704 475.629 456.972 473.391 456.249C471.154 455.527 470.532 460.586 470.027 462.57Z" fill="#68E1FD"/>
<path d="M359.337 255.599H300.695C298.884 255.599 297.415 257.067 297.415 258.877V258.995C297.415 260.805 298.884 262.272 300.695 262.272H359.337C361.149 262.272 362.618 260.805 362.618 258.995V258.877C362.618 257.067 361.149 255.599 359.337 255.599Z" fill="url(#paint9_linear)"/>
<path d="M359.337 273.753H300.695C298.884 273.753 297.415 275.22 297.415 277.031V277.148C297.415 278.959 298.884 280.426 300.695 280.426H359.337C361.149 280.426 362.618 278.959 362.618 277.148V277.031C362.618 275.22 361.149 273.753 359.337 273.753Z" fill="url(#paint10_linear)"/>
<path d="M359.337 291.89H300.695C298.884 291.89 297.415 293.358 297.415 295.168V295.285C297.415 297.096 298.884 298.563 300.695 298.563H359.337C361.149 298.563 362.618 297.096 362.618 295.285V295.168C362.618 293.358 361.149 291.89 359.337 291.89Z" fill="url(#paint11_linear)"/>
<path d="M359.337 310.027H300.695C298.884 310.027 297.415 311.495 297.415 313.305V313.422C297.415 315.233 298.884 316.7 300.695 316.7H359.337C361.149 316.7 362.618 315.233 362.618 313.422V313.305C362.618 311.495 361.149 310.027 359.337 310.027Z" fill="url(#paint12_linear)"/>
<path d="M359.337 328.164H300.695C298.884 328.164 297.415 329.632 297.415 331.442V331.559C297.415 333.37 298.884 334.837 300.695 334.837H359.337C361.149 334.837 362.618 333.37 362.618 331.559V331.442C362.618 329.632 361.149 328.164 359.337 328.164Z" fill="url(#paint13_linear)"/>
<path d="M537.315 85.2558V138.826C537.355 141.281 536.911 143.72 536.008 146.003C535.105 148.286 533.76 150.369 532.051 152.133C530.342 153.897 528.302 155.307 526.048 156.283C523.793 157.259 521.369 157.781 518.912 157.821H478.001L459.496 184.598V157.821H424.607C422.148 157.792 419.719 157.28 417.459 156.313C415.198 155.347 413.15 153.944 411.432 152.187C409.713 150.429 408.358 148.351 407.444 146.07C406.53 143.789 406.074 141.35 406.103 138.894V85.2558C406.065 82.7933 406.514 80.3475 407.424 78.0589C408.335 75.7702 409.688 73.6837 411.408 71.919C413.127 70.1542 415.178 68.7461 417.443 67.7752C419.708 66.8044 422.143 66.29 424.607 66.2615H518.811C521.268 66.2878 523.695 66.7974 525.954 67.7612C528.214 68.725 530.261 70.124 531.979 71.8785C533.698 73.6329 535.053 75.7084 535.969 77.9864C536.884 80.2644 537.342 82.7002 537.315 85.1549V85.2558Z" fill="white"/>
<path d="M466.225 146.76L466.561 138.171C462.102 137.951 457.799 136.458 454.164 133.868L456.334 128.287C459.721 130.756 463.754 132.186 467.941 132.405C473.795 132.624 477.832 129.346 478.034 124.522C478.236 119.698 475.124 116.874 469.169 114.05C460.926 110.335 455.913 106.234 456.199 98.9215C456.468 91.9122 461.498 86.7854 469.102 85.8273L469.421 77.221L474.468 77.4227L474.148 85.6087C477.889 85.8097 481.515 86.9673 484.679 88.9706L482.458 94.568C479.435 92.5054 475.889 91.3398 472.231 91.2062C465.922 90.954 463.399 94.7529 463.281 98.1147C463.113 102.502 466.057 104.838 473.021 108.2C481.432 112.083 485.419 116.605 485.133 124.186C484.881 130.909 480.086 136.944 471.675 138.036L471.322 146.827L466.225 146.76Z" fill="#68E1FD"/>
</g>
<defs>
<linearGradient id="paint0_linear" x1="655.928" y1="227.73" x2="321.926" y2="11.2784" gradientUnits="userSpaceOnUse">
<stop offset="0.01"/>
<stop offset="0.08" stop-opacity="0.69"/>
<stop offset="0.21" stop-opacity="0.32"/>
<stop offset="1" stop-opacity="0"/>
</linearGradient>
<linearGradient id="paint1_linear" x1="375.318" y1="323.693" x2="369.406" y2="518.124" gradientUnits="userSpaceOnUse">
<stop offset="0.01"/>
<stop offset="0.84" stop-opacity="0"/>
</linearGradient>
<linearGradient id="paint2_linear" x1="3233.02" y1="41871.9" x2="37364.3" y2="29637.3" gradientUnits="userSpaceOnUse">
<stop offset="0.01"/>
<stop offset="0.08" stop-opacity="0.69"/>
<stop offset="0.21" stop-opacity="0.32"/>
<stop offset="1" stop-opacity="0"/>
</linearGradient>
<linearGradient id="paint3_linear" x1="53.6794" y1="194.801" x2="676.94" y2="406.385" gradientUnits="userSpaceOnUse">
<stop offset="0.01"/>
<stop offset="0.13" stop-opacity="0.69"/>
<stop offset="0.25" stop-opacity="0.32"/>
<stop offset="1" stop-opacity="0"/>
</linearGradient>
<linearGradient id="paint4_linear" x1="15087.7" y1="23587" x2="23718.2" y2="22211.7" gradientUnits="userSpaceOnUse">
<stop offset="0.01"/>
<stop offset="0.84" stop-opacity="0"/>
</linearGradient>
<linearGradient id="paint5_linear" x1="12682.7" y1="10702.4" x2="13881.6" y2="10702.4" gradientUnits="userSpaceOnUse">
<stop offset="0.01"/>
<stop offset="0.13" stop-opacity="0.69"/>
<stop offset="0.25" stop-opacity="0.32"/>
<stop offset="1" stop-opacity="0"/>
</linearGradient>
<linearGradient id="paint6_linear" x1="9070.34" y1="24347.4" x2="17084.8" y2="23257.4" gradientUnits="userSpaceOnUse">
<stop offset="0.01"/>
<stop offset="0.13" stop-opacity="0.69"/>
<stop offset="0.25" stop-opacity="0.32"/>
<stop offset="1" stop-opacity="0"/>
</linearGradient>
<linearGradient id="paint7_linear" x1="4284.12" y1="12600.3" x2="4896.11" y2="12560.1" gradientUnits="userSpaceOnUse">
<stop offset="0.01"/>
<stop offset="0.13" stop-opacity="0.69"/>
<stop offset="0.25" stop-opacity="0.32"/>
<stop offset="1" stop-opacity="0"/>
</linearGradient>
<linearGradient id="paint8_linear" x1="6435.77" y1="19565.3" x2="7986.01" y2="19581.9" gradientUnits="userSpaceOnUse">
<stop offset="0.01"/>
<stop offset="0.13" stop-opacity="0.69"/>
<stop offset="0.25" stop-opacity="0.32"/>
<stop offset="1" stop-opacity="0"/>
</linearGradient>
<linearGradient id="paint9_linear" x1="14779.6" y1="-1811.16" x2="14777.1" y2="-642.805" gradientUnits="userSpaceOnUse">
<stop offset="0.01"/>
<stop offset="0.84" stop-opacity="0"/>
</linearGradient>
<linearGradient id="paint10_linear" x1="14779.6" y1="-1757.3" x2="14777.1" y2="-588.951" gradientUnits="userSpaceOnUse">
<stop offset="0.01"/>
<stop offset="0.84" stop-opacity="0"/>
</linearGradient>
<linearGradient id="paint11_linear" x1="14779.6" y1="-1703.43" x2="14777.1" y2="-535.017" gradientUnits="userSpaceOnUse">
<stop offset="0.01"/>
<stop offset="0.84" stop-opacity="0"/>
</linearGradient>
<linearGradient id="paint12_linear" x1="14779.6" y1="-1649.5" x2="14777.1" y2="-481.151" gradientUnits="userSpaceOnUse">
<stop offset="0.01"/>
<stop offset="0.84" stop-opacity="0"/>
</linearGradient>
<linearGradient id="paint13_linear" x1="14779.6" y1="-1595.63" x2="14777.1" y2="-427.284" gradientUnits="userSpaceOnUse">
<stop offset="0.01"/>
<stop offset="0.84" stop-opacity="0"/>
</linearGradient>
<clipPath id="clip0">
<rect width="606" height="535" fill="white"/>
</clipPath>
</defs>
</svg>
