<svg width="570" height="428" xmlns="http://www.w3.org/2000/svg">
 <defs>
  <linearGradient y2="2.83909" x2="0.46375" y1="-0.07634" x1="0.509" id="paint0_linear">
   <stop stop-opacity="0" stop-color="white"/>
   <stop stop-color="white" offset="0.54"/>
  </linearGradient>
  <linearGradient y2="2.5253" x2="6.04201" y1="-0.57859" x1="-2.57755" id="paint1_linear">
   <stop offset="0.01"/>
   <stop stop-opacity="0.69" offset="0.08"/>
   <stop stop-opacity="0.32" offset="0.21"/>
   <stop stop-opacity="0" offset="1"/>
  </linearGradient>
 </defs>
 <g>
  <title>background</title>
  <rect fill="none" id="canvas_background" height="602" width="802" y="-1" x="-1"/>
 </g>
 <g>
  <title>Layer 1</title>
  <g stroke="null" id="svg_32">
   <path stroke="null" id="svg_1" fill="#020202" d="m251.03251,395.35082c-10.02727,10.06779 -26.42926,9.00834 -39.84348,14.06399l2.65613,3.31041c-0.9304,2.47305 -4.24981,2.8272 -6.90594,2.75968c-28.04695,-0.72781 -57.15485,0.61826 -85.00222,-2.38452c5.26874,-6.73337 13.6138,-7.17456 21.31658,-8.49962c11.79953,-2.00786 23.33194,-5.14269 35.21851,-6.82191c24.01323,-3.57602 48.35961,-4.39087 72.56042,-2.42803l0,0z" opacity="0.14"/>
   <path stroke="null" id="svg_2" fill="#68E1FD" d="m409.85568,342.67387l-185.47453,0l20.05455,-64.33241l140.49586,0l24.92412,64.33241z"/>
   <path stroke="null" id="svg_3" fill="#020202" d="m239.30051,294.78847l161.96701,25.67594l-16.33596,-42.12295l-140.49586,0l-5.13519,16.44701z" opacity="0.14"/>
   <path stroke="null" id="svg_4" fill="#68E1FD" d="m539.88008,12.50769l-424.09571,0c-15.66067,0 -28.35608,12.6624 -28.35608,28.28105l0,213.84112c0,15.62016 12.69541,28.28105 28.35608,28.28105l424.09571,0c15.66067,0 28.35608,-12.66089 28.35608,-28.28105l0,-213.84112c0,-15.61866 -12.69541,-28.28105 -28.35608,-28.28105z"/>
   <path stroke="null" id="svg_5" fill="url(#paint0_linear)" d="m539.88008,13.10344l-424.09571,0c-15.66067,0 -28.35608,12.6624 -28.35608,28.28105l0,213.84112c0,15.62016 12.69541,28.28105 28.35608,28.28105l424.09571,0c15.66067,0 28.35608,-12.66089 28.35608,-28.28105l0,-213.84112c0,-15.61866 -12.69541,-28.28105 -28.35608,-28.28105z"/>
   <path stroke="null" id="svg_6" fill="#68E1FD" d="m568.25867,251.4515l0,3.15584c0,15.63066 -12.70591,28.28105 -29.48456,38.61445l-424.11972,0c-14.52019,-10.3334 -27.2261,-22.98379 -27.2261,-38.61445l0,-3.15584l480.83038,0z"/>
   <path stroke="null" id="svg_7" fill="#68E1FD" d="m431.52641,335.96301l-225.80572,0l0,6.68985l225.80572,0l0,-6.68985z"/>
   <path stroke="null" id="svg_8" fill="url(#paint1_linear)" d="m87.56185,203.45505l57.06482,0c1.90131,-0.02851 3.77861,-0.43068 5.52385,-1.184c1.74524,-0.75182 3.32392,-1.83978 4.64898,-3.20086c1.32356,-1.36108 2.36501,-2.96977 3.06581,-4.73302c0.7008,-1.76175 1.04595,-3.64505 1.01743,-5.54186l0,0l0,-124.75866c0.02851,-1.89681 -0.31663,-3.78011 -1.01743,-5.54336c-0.7008,-1.76175 -1.74224,-3.37044 -3.06581,-4.73152c-1.32506,-1.36108 -2.90374,-2.44904 -4.64898,-3.20086c-1.74524,-0.75332 -3.62254,-1.15549 -5.52385,-1.184l-57.06482,0l0,154.07815z"/>
   <path stroke="null" id="svg_9" fill="white" d="m135.97098,49.3769l-121.28033,0c-7.15175,0 -12.94932,5.78196 -12.94932,12.916l0,118.64355c0,7.13254 5.79757,12.9145 12.94932,12.9145l121.28033,0c7.15205,0 12.95052,-5.78196 12.95052,-12.9145l0,-118.64355c0,-7.13404 -5.79847,-12.916 -12.95052,-12.916z"/>
   <path stroke="null" id="svg_10" fill="#68E1FD" d="m41.14272,73.28659l71.16617,0c-0.37666,1.05945 -0.61976,1.92082 -0.97391,2.75968c-11.64346,27.78884 -23.2419,55.59119 -34.79683,83.40854c-0.99642,2.42803 -2.21344,3.51 -4.89208,3.24588c-2.5811,-0.13356 -5.1667,-0.13356 -7.7478,0l33.20315,-79.89854l-38.29452,0l8.30124,13.46674l-13.92368,14.37312l23.17663,0c-1.48413,3.17835 -2.70115,5.93803 -4.07424,8.60917c-0.21459,0.2266 -0.4772,0.40517 -0.76683,0.52222c-0.28962,0.11855 -0.60176,0.17407 -0.91539,0.16357l-37.62988,0c-0.24355,0 -0.48711,-0.19959 -1.61604,-1.28155c0.98007,-0.35265 1.90431,-0.84336 2.74482,-1.45712c6.39723,-6.26967 12.70591,-12.65039 19.14741,-18.89755c0.27807,-0.19508 0.51442,-0.44419 0.6954,-0.73231c0.18083,-0.28662 0.30268,-0.60776 0.3582,-0.9424c0.05567,-0.33464 0.04397,-0.67679 -0.03436,-1.00843c-0.07818,-0.33014 -0.22149,-0.64077 -0.42168,-0.91539l-0.15487,-0.19959l-12.5509,-21.21604z"/>
   <path stroke="null" id="svg_11" fill="white" d="m237.4187,159.54334c23.87667,0 43.23192,-19.30423 43.23192,-43.11787c0,-23.81215 -19.35525,-43.11637 -43.23192,-43.11637c-23.87517,0 -43.23042,19.30423 -43.23042,43.11637c0,23.81365 19.35525,43.11787 43.23042,43.11787z" opacity="0.18"/>
   <path stroke="null" id="svg_12" fill="white" d="m493.83746,159.54334c23.87667,0 43.23192,-19.30423 43.23192,-43.11787c0,-23.81215 -19.35525,-43.11637 -43.23192,-43.11637c-23.87517,0 -43.23042,19.30423 -43.23042,43.11637c0,23.81365 19.35525,43.11787 43.23042,43.11787z" opacity="0.18"/>
   <path stroke="null" id="svg_13" fill="white" d="m234.76257,148.28404l0,-7.83784c-4.20029,0.0015 -8.31804,-1.169 -11.88656,-3.37794l1.81577,-5.23273c3.29991,2.1189 7.14154,3.24588 11.06722,3.24588c5.57788,0 9.27545,-3.17985 9.27545,-7.59474c0,-4.41488 -3.03279,-6.91044 -8.85527,-9.24994c-7.94589,-3.09132 -12.86048,-6.62382 -12.83797,-13.40071c0,-6.42574 4.55894,-11.32683 11.70949,-12.51833l0,-7.81533l4.91459,0l0,7.5062c3.54751,0.02101 7.029,0.9484 10.11581,2.69365l-1.90431,5.21022c-2.96526,-1.75425 -6.35821,-2.66363 -9.80518,-2.62762c-5.97705,0 -8.23551,3.59853 -8.23551,6.62382c0,4.03972 2.90074,6.04908 9.65211,8.82976c8.03442,3.24588 12.06364,7.2646 12.08615,14.17504c0,6.11511 -4.27232,11.87756 -12.26323,13.24614l0,8.03592l-4.84857,0.08854z"/>
   <path stroke="null" id="svg_14" fill="white" d="m237.90641,193.85096c4.9386,0 8.94231,-3.9932 8.94231,-8.9183c0,-4.9266 -4.00371,-8.9198 -8.94231,-8.9198c-4.9386,0 -8.94231,3.9932 -8.94231,8.9198c0,4.9251 4.00371,8.9183 8.94231,8.9183z"/>
   <path stroke="null" id="svg_15" fill="white" d="m364.89802,193.85096c4.9386,0 8.94231,-3.9932 8.94231,-8.9183c0,-4.9266 -4.00371,-8.9198 -8.94231,-8.9198c-4.9386,0 -8.94231,3.9932 -8.94231,8.9198c0,4.9251 4.00371,8.9183 8.94231,8.9183z"/>
   <path stroke="null" id="svg_16" fill="white" d="m493.83746,194.68982c4.9401,0 8.94381,-3.9932 8.94381,-8.9183c0,-4.9266 -4.00371,-8.9198 -8.94381,-8.9198c-4.9386,0 -8.94231,3.9932 -8.94231,8.9198c0,4.9251 4.00371,8.9183 8.94231,8.9183z"/>
   <path stroke="null" id="svg_17" fill="white" d="m490.49554,182.76874l-251.19503,0l0,3.00278l251.19503,0l0,-3.00278z"/>
   <path stroke="null" id="svg_18" fill="white" d="m493.06313,145.14921c-0.84336,-0.05102 -1.68072,-0.17708 -2.50157,-0.37516c-5.44132,-1.10597 -10.31239,-4.10275 -13.74586,-8.4561c-2.19093,-2.62012 -3.89266,-5.61089 -5.02414,-8.83126c-0.15607,-0.44119 -0.33314,-0.61826 -0.81935,-0.59575l-8.41108,0l0,-8.23551l7.39215,0l0,-4.03972l-7.41466,0l0,-8.32255l8.43359,0c0.18158,0.02551 0.36616,-0.02101 0.51472,-0.12755c0.14856,-0.10655 0.24911,-0.26711 0.28212,-0.44719c1.92682,-5.79997 5.74445,-10.7896 10.84662,-14.17354c2.99077,-2.00635 6.45425,-3.20086 10.04978,-3.46648l3.47548,0l2.78819,0.4637c3.77561,0.77133 7.29011,2.49706 10.20435,5.01214c2.87523,2.44904 5.22523,5.45332 6.90744,8.83126l0.13206,0.35265l-7.45968,3.55501c-0.37666,-0.66328 -0.7083,-1.30256 -1.10747,-1.92082c-1.92682,-3.37644 -4.99413,-5.95754 -8.65419,-7.2856c-3.19036,-1.14649 -6.70486,-0.99492 -9.78417,0.41868c-3.7666,1.75425 -6.77989,4.79154 -8.49962,8.56565l0,0.26561l18.74899,0l0,8.27903l-21.05097,0l0,4.03972l21.00595,0l0,8.32405l-18.81502,0c0.82235,1.76775 1.90431,3.40495 3.20987,4.85607c1.92982,2.22695 4.4674,3.84614 7.30511,4.65949c2.07839,0.57775 4.26782,0.64678 6.37922,0.20109c2.1114,-0.44569 4.08474,-1.39409 5.75045,-2.76268c2.22995,-1.71523 4.03372,-3.92117 5.26874,-6.44675c0,-0.13206 0.15457,-0.26411 0.26561,-0.44119l7.57073,3.59853c-0.79834,1.32506 -1.50664,2.60511 -2.21494,3.81913c-1.72574,2.5871 -3.91667,4.83206 -6.46325,6.62382c-3.22037,2.22695 -6.98097,3.55351 -10.89014,3.84014l-0.57625,0l-3.09882,0.22209z"/>
   <path stroke="null" id="svg_19" fill="#473F47" d="m128.11363,399.74469c1.43311,1.80077 3.13484,3.37194 5.04665,4.65798c2.47906,1.4136 6.37472,1.96434 7.83634,3.42146c1.06245,1.05945 3.85214,5.60789 -6.44225,5.51935c-10.29289,-0.08854 -15.251,0.64077 -16.35697,-1.10297c-1.10747,-1.74524 1.59368,-12.84998 1.59368,-12.84998c2.74167,0.52522 5.54636,0.64527 8.32255,0.35415l0,0z"/>
   <path stroke="null" id="svg_20" fill="#473F47" d="m184.1385,399.7657c1.43311,1.80227 3.13484,3.37344 5.04665,4.65949c2.47906,1.4121 11.59994,2.5826 13.06006,4.03972c1.06245,1.05945 2.83321,5.29876 -11.66447,4.90109c-10.29289,-0.28662 -15.2525,0.64077 -16.35847,-1.10447c-1.10747,-1.74374 1.59368,-12.84847 1.59368,-12.84847c2.75667,0.38266 5.54336,0.50121 8.32255,0.35265z"/>
   <path stroke="null" id="svg_21" fill="#473F47" d="m126.38639,260.89953c-0.84786,9.76466 -1.18851,19.56534 -1.01743,29.36301c0.59725,10.40693 0.37516,20.84538 -0.66478,31.2178c-1.23953,12.9145 -6.26367,43.47052 -6.44074,50.35846c-0.17708,6.88793 0.77433,28.96534 0.77433,28.96534l10.04978,0.2431c0,0 8.4561,-53.42727 10.62453,-58.88059c2.16992,-5.45332 22.13593,-65.45939 22.42405,-69.80825c0.28812,-4.34885 -35.74973,-11.45888 -35.74973,-11.45888z"/>
   <path stroke="null" id="svg_22" fill="#473F47" d="m177.34361,261.73839c0,0 1.97034,33.69086 2.69965,40.46774c0.73081,6.77839 1.21852,32.82949 1.57267,37.06879c0.35415,4.23781 2.43404,55.45763 4.42689,61.81584l-11.22328,0c0,0 -11.4889,-37.24437 -11.4889,-54.88439c0,-17.64002 -7.63675,-38.30382 -12.54985,-49.91577c-4.91459,-11.61345 -16.15889,-11.90007 -19.19168,-33.49127c-0.08854,-0.04502 41.65925,-7.90387 45.7545,-1.06095z"/>
   <path stroke="null" id="svg_23" fill="#FCA89E" d="m163.35315,169.7642c-1.09697,1.42861 -2.48506,2.60961 -4.07274,3.46648c-0.7083,2.03787 -0.7083,4.25431 0,6.29218c1.26204,2.60511 -16.13638,1.03844 -16.13638,1.03844c0.39917,-3.35543 -0.11255,-6.75738 -1.48413,-9.8472c-6.97197,-9.1614 -8.56565,-14.21706 -3.82813,-22.32051c0.9439,-1.60718 2.26597,-2.96376 3.85064,-3.95118c1.68522,-1.06996 3.58203,-1.76475 5.56137,-2.03487c1.97934,-0.27012 3.9932,-0.11105 5.90502,0.4667c2.02136,0.65428 3.84764,1.79927 5.31226,3.33442c0.69029,0.73231 1.19901,1.61769 1.48413,2.5826c0.52372,1.33107 1.20051,2.59761 2.01386,3.77561c0.18908,0.36165 0.42768,0.6963 0.7083,0.99342c0.7083,0.72781 1.83678,0.99342 2.41303,1.83228c0.2401,0.42918 0.37666,0.90789 0.39467,1.4001c0.01951,0.49071 -0.07803,0.97992 -0.28362,1.42561c-0.44419,0.88388 -0.77883,1.81727 -0.99642,2.78219c-0.37666,2.64863 0.84036,6.35821 -0.84186,8.76373z"/>
   <path stroke="null" id="svg_24" fill="#FCA89E" d="m217.12106,141.79228c-0.48921,3.522 -1.45712,6.96147 -2.87823,10.22236c-1.34607,2.94125 -2.30648,6.04307 -2.85572,9.22893c-0.28662,2.64863 -0.42018,5.29726 -0.97391,7.94739c-0.68579,3.33292 -2.56759,10.88414 -3.63005,11.81153c-6.13161,4.85457 -12.98803,8.72022 -20.32016,11.45738c-5.85099,1.94183 -11.45888,4.54994 -16.71262,7.77181c-0.68579,0.44119 -3.14234,0 -3.91817,0l-21.91384,0c-1.79777,-0.18458 -3.5295,-0.77583 -5.06316,-1.72874c-1.53515,-0.95291 -2.83171,-2.24196 -3.79062,-3.76811c-0.91689,-1.15099 -1.45112,-2.55859 -1.53065,-4.02622c-0.07953,-1.46612 0.30013,-2.92325 1.08796,-4.16578c0.82085,-0.89738 1.79627,-1.6447 2.87673,-2.20744c2.92174,-1.76625 7.52721,-5.12168 11.06872,-4.85607l13.28066,0.90489c0,0 6.44225,0.66178 8.27903,1.01593c1.83678,0.35265 14.18855,-2.20894 16.73513,-2.47305c3.67357,-0.37516 8.01191,-4.15077 10.89014,-6.20364c4.73752,-3.40045 6.17513,-11.85655 7.59173,-17.30838c1.19601,-3.42446 1.19601,-7.15205 0,-10.57501c-1.10597,-2.38452 -3.36443,-4.68049 -2.61111,-7.21958c0.55524,-0.10504 1.12698,-0.07803 1.66871,0.07953c0.54323,0.15757 1.03994,0.43969 1.45262,0.82535c2.21344,-2.05287 0,-6.26967 2.21344,-8.30154c1.57117,-1.45712 4.2273,-0.50722 5.73244,1.01593c1.22002,1.38209 2.13841,3.00428 2.69515,4.76003c0.55524,1.75575 0.73831,3.60904 0.53723,5.43982c0.04502,0.04502 0.07803,0.10204 0.09304,0.16357c0.01651,0.06303 0.01351,0.12755 -0.0045,0.18908z"/>
   <path stroke="null" id="svg_25" fill="#68E1FD" d="m213.55704,156.49704c-0.13206,2.03037 -0.31063,4.06223 -0.57625,6.0926c-0.13656,1.43461 -0.37366,2.85872 -0.7083,4.26032c-0.35415,1.39109 -0.81785,2.75968 -1.172,4.17328c-0.88538,3.7531 -0.73081,7.85885 -2.76718,11.0387c-0.73681,1.10297 -1.59068,2.12491 -2.54659,3.0463c-0.43519,0.49071 -0.9334,0.92139 -1.48263,1.28005c-0.60026,0.24761 -1.21402,0.4607 -1.83678,0.64077c-1.30406,0.56724 -2.55559,1.24703 -3.74109,2.03187l-4.2273,2.20744c-3.18886,1.56667 -6.50827,2.91424 -9.65211,4.68049c-1.4016,0.79534 -2.69665,1.76775 -3.85064,2.89173c-3.45447,3.48899 -4.42839,7.92638 -4.2288,13.6213c0.35415,14.80681 0.71581,29.60612 1.08496,44.39792c0.14856,1.05945 -0.07953,2.13691 -0.64227,3.0463c-0.28062,0.33164 -0.63777,0.58825 -1.03994,0.75032c-0.71581,0.2401 -1.46012,0.38116 -2.21344,0.42018c-14.3236,1.33557 -28.73724,1.42411 -43.07585,0.26561c-8.01341,-0.7068 -4.42689,-3.11383 -8.43359,-8.58816c-2.78969,-3.86415 -7.37114,-6.42574 -11.4889,-8.69921c-6.13161,-3.35543 -12.92651,-7.44017 -14.49918,-14.23957c-1.65971,-7.19707 3.2759,-14.085 7.88136,-19.86997l17.41942,-21.70225c4.98062,-6.20364 8.16948,-6.04908 15.27501,-7.01999c0.75182,0 9.98225,-1.14799 10.02727,-1.67771c0,0 1.65971,2.20744 10.35891,-0.39767c0,0 10.35891,1.1705 12.06364,1.39109c4.73002,0.51172 9.51255,-0.17858 13.90192,-2.00936c4.37737,-1.47363 8.30154,-4.04272 11.39886,-7.46268c3.85364,-5.52685 6.72887,-11.67197 8.50112,-18.16974c0.05852,-0.34515 0.19358,-0.67379 0.39767,-0.96041c0.20259,-0.28662 0.4682,-0.52372 0.77433,-0.6948c0.30913,-0.06903 0.62877,-0.07053 0.9379,-0.006c0.30913,0.06453 0.60176,0.19508 0.85536,0.38116l6.50827,3.51l0.35415,0.22059c0.15307,0.07053 0.27162,0.19808 0.33164,0.35415c0.10354,0.25211 0.14106,0.52522 0.11105,0.79534l0,0z"/>
   <path stroke="null" id="svg_26" fill="#473F47" d="m159.81164,149.10039c-0.58525,-0.51322 -1.28305,-0.88238 -2.03637,-1.08196c0.36916,2.38452 -0.19208,4.81855 -1.57117,6.7994c-1.38359,1.95533 -2.22245,4.24081 -2.43554,6.62382c-0.03451,-0.19208 -0.10655,-0.37366 -0.21159,-0.53723c-0.10655,-0.16357 -0.2431,-0.30463 -0.40367,-0.41568c-0.16057,-0.11105 -0.34065,-0.18908 -0.53123,-0.2296c-0.19058,-0.04202 -0.38867,-0.04502 -0.57925,-0.009c-0.17407,0.02401 -0.33914,0.08404 -0.48771,0.17557c-0.39467,0.24761 -0.71581,0.59425 -0.9334,1.00543c-0.21759,0.40967 -0.32264,0.87037 -0.30613,1.33557c-0.03902,0.9394 0.2251,1.8683 0.75332,2.64863c0.40067,0.66028 1.02344,1.15549 1.75725,1.3986c0.73531,0.2431 1.53215,0.21609 2.24796,-0.07353c-1.10597,-0.44119 -2.21344,0.61826 -2.5886,1.76625c-0.15607,1.1795 -0.15607,2.37401 0,3.55351c0.03602,1.6312 -0.40967,3.23688 -1.28455,4.61447l-1.21702,-1.30256c-0.33014,0.53723 -0.53423,1.14049 -0.59876,1.76625c-0.17708,0.59575 -0.75182,1.23653 -1.34907,1.03844c-0.2446,0 -0.44269,-0.30913 -0.7083,-0.30913c-0.26561,0 -0.59876,0.55073 -0.86437,0.9274c-0.61976,0.90489 -2.21344,0.59575 -2.87673,-0.2431c-0.62126,-0.92589 -1.08496,-1.94783 -1.37309,-3.02529c-0.42018,-1.01593 -1.26204,-2.05287 -2.39052,-2.03037c-0.28362,0.06603 -0.57925,0.06603 -0.86287,0c-0.15156,-0.07353 -0.28512,-0.17858 -0.39167,-0.30913c-0.10655,-0.12905 -0.18458,-0.27912 -0.2281,-0.44119c-1.34607,-2.79119 -2.89924,-5.47733 -4.64898,-8.03742c-1.53665,-2.01086 -2.89173,-4.15227 -4.05023,-6.40173c-0.85837,-1.86529 -1.33557,-3.88065 -1.4046,-5.93053c-0.06753,-2.05137 0.27312,-4.09374 1.00543,-6.01156c0.73081,-1.91632 1.83828,-3.66906 3.25489,-5.1562c1.4181,-1.48563 3.11833,-2.67564 5.00163,-3.49949c1.11498,-0.51322 2.28998,-0.88388 3.49799,-1.10447c2.21344,-0.39767 4.42689,-0.35265 6.64033,-0.68429c1.46162,-0.22059 3.29841,-1.30256 4.76003,-1.10447c3.20837,0.44269 5.79847,5.56437 6.64033,8.23551c0.30613,0.97842 0.51322,1.98385 0.61976,3.00278c-0.02551,1.01743 0.02551,2.03637 0.15457,3.0463z"/>
   <path stroke="null" id="svg_27" fill="#020202" d="m124.63815,204.75761c-5.55537,4.12826 -9.36249,10.15483 -12.99404,16.04934c-1.48263,2.16992 -2.66063,4.53193 -3.49649,7.02149c-0.41718,1.24253 -0.58225,2.55559 -0.48621,3.86265c0.09454,1.30706 0.44719,2.5826 1.03994,3.7531c0.12905,0.30163 0.36616,0.54473 0.66328,0.68579c0.36165,0.07053 0.73681,0.01501 1.06245,-0.15457l3.36443,-1.39109l9.1419,16.40349c0.55374,-7.11003 0.53123,-14.39563 0.88538,-21.52667c0.19959,-4.17178 0.37666,-8.34506 0.51022,-12.51683c0.06603,-1.56817 -0.75332,-11.32533 0.30913,-12.18669z" opacity="0.14"/>
   <path stroke="null" id="svg_28" fill="#020202" d="m213.55704,156.49704c-0.13206,2.03037 -0.31063,4.06223 -0.57625,6.0926c-0.13656,1.43461 -0.37366,2.85872 -0.7083,4.26032c-0.35415,1.39109 -0.81785,2.75968 -1.172,4.17328c-0.88538,3.7531 -0.73081,7.85885 -2.76718,11.0387c-0.73681,1.10297 -1.59068,2.12491 -2.54659,3.0463c-0.43519,0.49071 -0.9334,0.92139 -1.48263,1.28005c-0.60026,0.24761 -1.21402,0.4607 -1.83678,0.64077c-1.30406,0.56724 -2.55559,1.24703 -3.74109,2.03187l-4.2273,2.20744c-3.18886,1.56667 -6.50827,2.91424 -9.65211,4.68049c-1.4016,0.79534 -2.69665,1.76775 -3.85064,2.89173c-3.45447,3.48899 -4.42839,7.92638 -4.2288,13.6213c0.35415,14.80681 0.71581,29.60612 1.08496,44.39792c0.14856,1.05945 -0.07953,2.13691 -0.64227,3.0463c-0.28062,0.33164 -0.63777,0.58825 -1.03994,0.75032c-2.63362,0.26561 -5.28225,0.33164 -7.92488,0.19959c5.44582,-8.49962 4.42689,-19.4723 3.2759,-29.49507c-1.15399,-7.79132 -1.21402,-15.70569 -0.17708,-23.51352c1.09847,-7.89787 5.18471,-15.07842 11.42287,-20.06805c5.6214,-4.10575 13.03756,-5.71744 17.86361,-10.72957c2.70265,-3.23388 4.78104,-6.93896 6.13161,-10.92766c1.08346,-2.62762 2.74467,-9.95674 6.26367,-10.68605c0.15307,0.07053 0.27162,0.19658 0.33164,0.35415c0.12155,0.21609 0.19058,0.4577 0.19959,0.7068l0,0z" opacity="0.14"/>
  </g>
 </g>
</svg>