<svg width="1281" height="232" viewBox="0 0 1281 232" fill="none" xmlns="http://www.w3.org/2000/svg">
<path fill-rule="evenodd" clip-rule="evenodd" d="M0 117.71L53.129 129.533C106.258 143.327 214.484 168.943 320.742 168.943C427 168.943 533.258 143.327 641.484 98.0048C747.742 52.6829 854 -10.3737 960.258 1.44938C1068.48 15.243 1174.74 103.916 1227.87 149.238L1281 194.56V232H1227.87C1174.74 232 1068.48 232 960.258 232C854 232 747.742 232 641.484 232C533.258 232 427 232 320.742 232C214.484 232 106.258 232 53.129 232H0V117.71Z" fill="white"/>
</svg>
